<mxfile host="app.diagrams.net" agent="Mozilla/5.0 (Windows NT 10.0; Win64; x64) AppleWebKit/537.36 (KHTML, like Gecko) Chrome/109.0.0.0 Safari/537.36" version="24.7.12">
  <diagram id="iAVw1BS-TepNrcdEw7MR" name="PÃ¡gina-1">
    <mxGraphModel dx="1194" dy="744" grid="1" gridSize="10" guides="1" tooltips="1" connect="1" arrows="1" fold="1" page="1" pageScale="1" pageWidth="827" pageHeight="1169" math="0" shadow="0">
      <root>
        <mxCell id="0" />
        <mxCell id="1" parent="0" />
        <mxCell id="nyBCeVaaIGkUM6Ecv3Yj-1" value="&lt;b&gt;Turma&lt;/b&gt;" style="swimlane;fontStyle=0;childLayout=stackLayout;horizontal=1;startSize=30;horizontalStack=0;resizeParent=1;resizeParentMax=0;resizeLast=0;collapsible=1;marginBottom=0;whiteSpace=wrap;html=1;" vertex="1" parent="1">
          <mxGeometry x="284" y="170" width="260" height="200" as="geometry" />
        </mxCell>
        <mxCell id="nyBCeVaaIGkUM6Ecv3Yj-2" value="- nomeTurma: String&lt;div&gt;- ID: String&lt;/div&gt;&lt;div&gt;- quantidadeVagas: int&lt;/div&gt;&lt;div&gt;- alunos: Aluno&lt;/div&gt;&lt;div&gt;- disciplinas: Disciplina&lt;/div&gt;" style="text;strokeColor=default;fillColor=none;align=left;verticalAlign=middle;spacingLeft=4;spacingRight=4;overflow=hidden;points=[[0,0.5],[1,0.5]];portConstraint=eastwest;rotatable=0;whiteSpace=wrap;html=1;labelBorderColor=none;" vertex="1" parent="nyBCeVaaIGkUM6Ecv3Yj-1">
          <mxGeometry y="30" width="260" height="90" as="geometry" />
        </mxCell>
        <mxCell id="nyBCeVaaIGkUM6Ecv3Yj-3" value="+ void adicionarAluno(Aluno aluno)&lt;div&gt;+ void removerAluno(Aluno aluno)&lt;/div&gt;&lt;div&gt;+ void adicionarDisciplina(Disciplina Disciplina)&lt;/div&gt;&lt;div&gt;+ void removerDisciplina(Disciplina disciplina)&lt;/div&gt;" style="text;strokeColor=none;fillColor=none;align=left;verticalAlign=middle;spacingLeft=4;spacingRight=4;overflow=hidden;points=[[0,0.5],[1,0.5]];portConstraint=eastwest;rotatable=0;whiteSpace=wrap;html=1;" vertex="1" parent="nyBCeVaaIGkUM6Ecv3Yj-1">
          <mxGeometry y="120" width="260" height="80" as="geometry" />
        </mxCell>
      </root>
    </mxGraphModel>
  </diagram>
</mxfile>
